<svg xmlns="http://www.w3.org/2000/svg" viewBox="0 0 100 100" width="100" height="100">
  <rect width="100" height="100" rx="22" fill="#2D6A4F"/>
  <!-- Left hand arc -->
  <path d="M 18 72 Q 10 45 32 28 Q 42 22 50 30" fill="none" stroke="white" stroke-width="7" stroke-linecap="round"/>
  <!-- Right hand arc -->
  <path d="M 82 72 Q 90 45 68 28 Q 58 22 50 30" fill="none" stroke="white" stroke-width="7" stroke-linecap="round"/>
  <!-- Bottom cup -->
  <path d="M 18 72 Q 34 88 50 90 Q 66 88 82 72" fill="none" stroke="white" stroke-width="7" stroke-linecap="round"/>
  <!-- Heart -->
  <path d="M 50 55 C 50 55 38 45 38 38 C 38 33 42 30 46 31 C 48 32 50 34 50 34 C 50 34 52 32 54 31 C 58 30 62 33 62 38 C 62 45 50 55 50 55 Z" fill="white"/>
</svg>
